<mxfile host="app.diagrams.net" modified="2021-11-08T04:43:31.225Z" agent="5.0 (Macintosh; Intel Mac OS X 10_15_7) AppleWebKit/537.36 (KHTML, like Gecko) Chrome/95.0.4638.69 Safari/537.36" etag="SRauf77zzbUIejrNLmJc" version="15.7.0" type="github">
  <diagram id="tX8B_etKjYt3gRN5mam4" name="Page-1">
    <mxGraphModel dx="946" dy="589" grid="1" gridSize="10" guides="1" tooltips="1" connect="1" arrows="1" fold="1" page="1" pageScale="1" pageWidth="827" pageHeight="1169" math="0" shadow="0">
      <root>
        <mxCell id="0" />
        <mxCell id="1" parent="0" />
        <mxCell id="FycB9VuU2v-2Q_QRekes-1" value="고도몰&lt;br&gt;&amp;nbsp;DB" style="shape=cylinder3;whiteSpace=wrap;html=1;boundedLbl=1;backgroundOutline=1;size=15;" vertex="1" parent="1">
          <mxGeometry x="130" y="190" width="60" height="80" as="geometry" />
        </mxCell>
        <mxCell id="FycB9VuU2v-2Q_QRekes-8" style="edgeStyle=orthogonalEdgeStyle;rounded=0;orthogonalLoop=1;jettySize=auto;html=1;exitX=1;exitY=0.5;exitDx=0;exitDy=0;" edge="1" parent="1" source="FycB9VuU2v-2Q_QRekes-2" target="FycB9VuU2v-2Q_QRekes-3">
          <mxGeometry relative="1" as="geometry" />
        </mxCell>
        <mxCell id="FycB9VuU2v-2Q_QRekes-10" style="edgeStyle=orthogonalEdgeStyle;rounded=0;orthogonalLoop=1;jettySize=auto;html=1;exitX=0;exitY=0.5;exitDx=0;exitDy=0;entryX=1;entryY=0.5;entryDx=0;entryDy=0;entryPerimeter=0;" edge="1" parent="1" source="FycB9VuU2v-2Q_QRekes-2" target="FycB9VuU2v-2Q_QRekes-1">
          <mxGeometry relative="1" as="geometry" />
        </mxCell>
        <mxCell id="FycB9VuU2v-2Q_QRekes-11" style="edgeStyle=orthogonalEdgeStyle;rounded=0;orthogonalLoop=1;jettySize=auto;html=1;exitX=0.5;exitY=1;exitDx=0;exitDy=0;entryX=0.5;entryY=0;entryDx=0;entryDy=0;" edge="1" parent="1" source="FycB9VuU2v-2Q_QRekes-2" target="FycB9VuU2v-2Q_QRekes-4">
          <mxGeometry relative="1" as="geometry" />
        </mxCell>
        <mxCell id="FycB9VuU2v-2Q_QRekes-2" value="review-backoffice-api" style="rounded=0;whiteSpace=wrap;html=1;" vertex="1" parent="1">
          <mxGeometry x="270" y="200" width="150" height="60" as="geometry" />
        </mxCell>
        <mxCell id="FycB9VuU2v-2Q_QRekes-9" style="edgeStyle=orthogonalEdgeStyle;rounded=0;orthogonalLoop=1;jettySize=auto;html=1;exitX=1;exitY=0.5;exitDx=0;exitDy=0;" edge="1" parent="1" source="FycB9VuU2v-2Q_QRekes-3">
          <mxGeometry relative="1" as="geometry">
            <mxPoint x="700" y="230" as="targetPoint" />
          </mxGeometry>
        </mxCell>
        <mxCell id="FycB9VuU2v-2Q_QRekes-3" value="LaCMS" style="rounded=0;whiteSpace=wrap;html=1;" vertex="1" parent="1">
          <mxGeometry x="510" y="200" width="120" height="60" as="geometry" />
        </mxCell>
        <mxCell id="FycB9VuU2v-2Q_QRekes-4" value="file-service&lt;br&gt;&amp;lt;&amp;lt;gateway.cloud.dev.kurly.services/file-service&amp;gt;&amp;gt;" style="whiteSpace=wrap;html=1;" vertex="1" parent="1">
          <mxGeometry x="130" y="320" width="290" height="60" as="geometry" />
        </mxCell>
        <mxCell id="FycB9VuU2v-2Q_QRekes-5" value="Actor" style="shape=umlActor;verticalLabelPosition=bottom;verticalAlign=top;html=1;outlineConnect=0;" vertex="1" parent="1">
          <mxGeometry x="710" y="200" width="30" height="60" as="geometry" />
        </mxCell>
      </root>
    </mxGraphModel>
  </diagram>
</mxfile>
